<svg xmlns="http://www.w3.org/2000/svg" width="51.166" height="51.166" viewBox="0 0 51.166 51.166">
  <g id="arrow-down-circle" transform="translate(0 51.166) rotate(-90)">
    <path id="Path_8" data-name="Path 8" d="M25.583,47.968A22.385,22.385,0,1,0,3.2,25.583,22.385,22.385,0,0,0,25.583,47.968Zm0,3.2A25.583,25.583,0,1,0,0,25.583,25.583,25.583,0,0,0,25.583,51.166Z" fill-rule="evenodd"/>
    <path id="Path_9" data-name="Path 9" d="M10.593,17.342a1.6,1.6,0,0,1,2.264,0l8.461,8.465,8.462-8.465a1.6,1.6,0,0,1,2.264,2.264L22.451,29.2a1.6,1.6,0,0,1-2.264,0l-9.594-9.594a1.6,1.6,0,0,1,0-2.264Z" transform="translate(4.265 7.108)" fill-rule="evenodd"/>
    <path id="Path_10" data-name="Path 10" d="M18.474,10.125a1.6,1.6,0,0,1,1.6,1.6V27.713a1.6,1.6,0,1,1-3.2,0V11.724A1.6,1.6,0,0,1,18.474,10.125Z" transform="translate(7.109 4.265)" fill-rule="evenodd"/>
  </g>
</svg>
