<svg xmlns="http://www.w3.org/2000/svg" width="51.166" height="51.166" viewBox="0 0 51.166 51.166">
  <g id="arrow-down-circle" transform="translate(0 51.166) rotate(-90)">
    <path id="Path_8" data-name="Path 8" d="M25.583,3.2A22.385,22.385,0,1,1,3.2,25.583,22.385,22.385,0,0,1,25.583,3.2Zm0-3.2A25.583,25.583,0,1,1,0,25.583,25.583,25.583,0,0,1,25.583,0Z" fill-rule="evenodd"/>
    <path id="Path_9" data-name="Path 9" d="M.47,12.327a1.6,1.6,0,0,0,2.264,0l8.461-8.465,8.462,8.465a1.6,1.6,0,0,0,2.264-2.264L12.327.47a1.6,1.6,0,0,0-2.264,0L.47,10.063a1.6,1.6,0,0,0,0,2.264Z" transform="translate(14.388 14.388)" fill-rule="evenodd"/>
    <path id="Path_10" data-name="Path 10" d="M1.6,19.187a1.6,1.6,0,0,0,1.6-1.6V1.6A1.6,1.6,0,1,0,0,1.6V17.588A1.6,1.6,0,0,0,1.6,19.187Z" transform="translate(23.984 17.588)" fill-rule="evenodd"/>
  </g>
</svg>
